<?xml version="1.0" standalone="no"?>
<!DOCTYPE svg PUBLIC "-//W3C//DTD SVG 20010904//EN"
 "http://www.w3.org/TR/2001/REC-SVG-20010904/DTD/svg10.dtd">
<svg version="1.0" xmlns="http://www.w3.org/2000/svg"
 width="252.000000pt" height="252.000000pt" viewBox="0 0 252.000000 252.000000"
 preserveAspectRatio="xMidYMid meet">
<metadata>
Created by potrace 1.11, written by Peter Selinger 2001-2013
</metadata>
<g transform="translate(0.000000,252.000000) scale(0.100000,-0.100000)"
fill="#000000" stroke="none">
<path d="M576 1964 c-13 -13 -21 -37 -14 -46 4 -6 -23 -48 -30 -46 -13 5 -162
-54 -162 -63 0 -5 -9 -9 -20 -9 -11 0 -20 -4 -20 -9 0 -5 -8 -12 -18 -15 -37
-12 -192 -177 -192 -204 0 -6 -3 -12 -7 -14 -11 -4 -56 -104 -56 -123 0 -8 -3
-15 -7 -15 -3 0 -7 -8 -7 -17 -1 -10 -8 -49 -16 -88 -16 -86 -11 -274 9 -306
3 -5 7 -21 10 -35 6 -35 61 -149 79 -164 8 -7 15 -17 15 -22 0 -15 109 -116
141 -130 16 -7 29 -16 29 -20 0 -5 4 -8 9 -8 5 0 22 -5 38 -12 61 -24 114 -35
167 -34 25 1 46 -2 46 -6 0 -4 10 -4 23 0 12 4 43 7 70 6 26 -1 47 1 47 5 0 3
12 7 28 8 28 3 67 10 67 13 0 1 7 3 15 5 8 2 30 8 49 14 32 10 35 8 93 -49 56
-55 62 -58 86 -47 15 6 35 17 45 25 9 9 17 12 17 8 0 -4 13 2 29 13 16 12 34
21 40 21 6 0 11 4 11 9 0 6 13 18 29 27 26 16 28 20 18 43 -12 27 -48 72 -79
100 -10 8 -18 19 -18 23 0 8 22 38 53 70 9 10 14 18 11 18 -3 0 3 12 14 27 20
29 61 116 68 146 2 9 7 27 10 40 3 12 7 31 8 42 1 11 4 25 7 30 7 14 3 197 -6
265 -4 30 -8 63 -8 73 -1 9 -5 17 -9 17 -4 0 -7 3 -6 8 4 15 -14 72 -23 72 -5
0 -9 6 -9 14 0 22 -63 126 -77 126 -6 0 -15 9 -18 20 -3 11 -10 20 -14 20 -4
0 -16 8 -27 18 -33 29 -146 92 -164 92 -5 0 -21 5 -37 12 -15 6 -34 12 -42 14
-7 1 -34 7 -60 13 -25 6 -62 13 -81 15 -19 3 -35 5 -35 6 0 1 -11 3 -25 4 -14
2 -37 6 -52 9 -18 5 -32 2 -42 -9z m172 -364 c1 -1 5 -3 10 -4 42 -10 142 -96
142 -123 0 -7 4 -13 10 -13 5 0 9 -3 8 -7 0 -5 1 -15 4 -23 29 -80 30 -193 3
-320 -2 -8 -4 -15 -5 -15 -1 0 -3 -8 -5 -18 -5 -28 -12 -31 -31 -13 -17 17
-36 15 -86 -10 -15 -8 -31 -14 -34 -13 -4 0 -10 -3 -13 -8 -3 -4 -33 -21 -65
-38 -33 -16 -60 -37 -62 -46 -1 -9 9 -28 22 -42 20 -22 21 -27 9 -37 -8 -7
-15 -8 -15 -3 0 5 -10 9 -22 8 -71 -5 -183 106 -190 190 -1 14 -5 25 -8 25
-12 0 -17 158 -7 230 3 19 6 35 7 35 2 0 11 37 12 53 1 6 6 12 11 12 6 0 7 3
4 6 -8 8 26 57 73 106 55 57 95 75 165 73 33 -1 61 -4 63 -5z"/>
<path d="M1865 1901 c-3 -2 -24 -6 -47 -7 -80 -7 -204 -25 -228 -34 -3 -1 -9
-3 -15 -4 -67 -12 -100 -34 -110 -76 -1 -3 -7 -25 -14 -50 -7 -25 -13 -46 -13
-47 1 -2 -4 -17 -9 -35 -24 -79 -22 -95 13 -89 66 10 110 12 105 4 -3 -4 -9
-58 -12 -118 -4 -61 -9 -128 -11 -150 -3 -40 -8 -110 -19 -255 -3 -41 -8 -104
-10 -140 -3 -36 -7 -86 -8 -112 -2 -26 -6 -50 -9 -54 -4 -3 -3 -16 2 -29 5
-13 7 -25 4 -28 -10 -9 -12 -82 -3 -98 11 -22 57 -18 122 10 26 11 47 18 47
14 0 -3 6 -1 13 4 6 6 26 14 42 18 17 5 32 9 35 10 52 19 70 29 75 43 8 20 17
98 19 164 0 27 3 48 6 48 3 0 5 25 5 55 0 30 4 55 10 56 5 0 46 2 90 4 44 2
87 6 95 8 8 2 41 9 73 17 31 7 57 16 57 20 0 4 6 7 13 7 29 0 135 70 197 130
35 35 61 63 56 63 -5 0 -2 8 6 18 19 21 30 47 42 100 3 9 5 17 6 17 13 0 18
181 7 230 -5 22 -10 45 -11 50 -10 51 -103 165 -133 165 -7 0 -13 3 -13 8 0
13 -94 47 -165 58 -46 7 -304 12 -310 5z m199 -281 c36 -13 66 -46 67 -74 5
-63 -2 -113 -20 -150 -23 -48 -65 -98 -75 -89 -3 3 -6 1 -6 -5 0 -14 -71 -49
-112 -56 -15 -3 -31 1 -35 7 -6 10 -8 51 -3 60 0 1 3 31 6 67 7 89 14 160 18
190 2 14 4 30 5 37 3 28 95 36 155 13z"/>
</g>
</svg>
